<svg version="1.1" xmlns="http://www.w3.org/2000/svg" xmlns:xlink="http://www.w3.org/1999/xlink" viewBox="0 0 226 226"><g fill="none" fill-rule="nonzero" stroke="none" stroke-width="1" stroke-linecap="butt" stroke-linejoin="miter" stroke-miterlimit="10" stroke-dasharray="" stroke-dashoffset="0" font-family="none" font-weight="none" font-size="none" text-anchor="none" style="mix-blend-mode: normal"><path d="M0,226v-226h226v226z" fill="none"></path><g fill="#2ecc71"><path d="M94.16667,18.83333c-6.12083,0 -10.64745,5.74637 -9.14079,11.67887l7.72461,31.06396c-9.98167,6.78 -18.17711,14.98206 -24.20378,23.9279c5.83833,1.13 11.30147,3.85716 15.63314,8.00049c8.00417,7.53334 11.21245,18.55378 9.14079,28.91211h14.6032c18.36249,0 34.6423,11.76936 40.48063,29.09603c1.50667,4.33167 2.2622,8.93847 2.2622,13.6468c0,9.13417 -3.0148,18.27496 -8.57064,25.61996l-12.24903,16.3872h30.14437c3.01333,0 5.84348,-1.41397 7.63265,-3.8623c9.41667,-13.2775 39.54265,-57.1577 39.54265,-80.8877c0,-22.78833 -13.46215,-45.30299 -36.25048,-60.84049l7.7246,-31.06396c1.50667,-5.9325 -3.01995,-11.67887 -9.14079,-11.67887zM63.24984,103.74886c-2.89916,-0.14596 -5.85113,0.71891 -8.29476,2.61166l-30.56738,23.87272c-3.57833,3.48417 -5.55436,8.28814 -5.55436,13.27897v44.82113c0,10.35833 8.475,18.83333 18.83333,18.83333h63.94873c2.95683,0 5.74255,-1.39735 7.5223,-3.77035l17.89534,-23.9095c3.1075,-4.14333 4.8003,-9.24231 4.8003,-14.32732c0,-2.5425 -0.38476,-5.07396 -1.23226,-7.5223c-3.29583,-9.79333 -12.41308,-16.3872 -22.67724,-16.3872h-43.12907l8.79134,-18.98047c2.73083,-4.98142 1.76092,-11.19186 -2.35417,-15.09978c-2.24117,-2.12817 -5.08294,-3.27494 -7.9821,-3.4209z"></path></g></g></svg>