<svg version="1.1" xmlns="http://www.w3.org/2000/svg" xmlns:xlink="http://www.w3.org/1999/xlink" viewBox="0 0 226 226"><g fill="none" fill-rule="nonzero" stroke="none" stroke-width="1" stroke-linecap="butt" stroke-linejoin="miter" stroke-miterlimit="10" stroke-dasharray="" stroke-dashoffset="0" font-family="none" font-weight="none" font-size="none" text-anchor="none" style="mix-blend-mode: normal"><path d="M0,226v-226h226v226z" fill="none"></path><g fill="#2ecc71"><path d="M180.8,31.64c-14.95668,0 -27.12,12.16332 -27.12,27.12c0,14.95668 12.16332,27.12 27.12,27.12c14.95668,0 27.12,-12.16332 27.12,-27.12c0,-14.95668 -12.16332,-27.12 -27.12,-27.12zM123.01992,59.5457c-1.72664,0 -3.47828,0.16893 -5.17328,0.49437c0,0 -40.39114,7.58647 -41.79234,7.83055c-18.88456,3.33576 -30.8543,15.74938 -30.8543,33.26438c0.5424,11.31808 6.91313,19.38416 16.11133,26.07828l36.25711,26.37844l-6.80649,30.55414c-0.25312,1.14356 -0.36195,2.30414 -0.36195,3.43414c-0.00452,7.25912 5.0047,13.80846 12.38586,15.44922c1.1526,0.25764 2.29962,0.37078 3.43414,0.37078c7.25008,0 13.80846,-5.00922 15.44922,-12.38586l9.04,-40.68c0.25312,-1.13904 0.37078,-2.2951 0.37078,-3.43414c0,-4.49288 -1.9198,-8.81033 -5.32336,-11.82969c-0.23956,-0.21244 -18.63554,-15.67642 -28.83266,-24.25086l30.17453,-5.80891l25.17781,53.3925c2.599,5.5144 8.21291,9.07531 14.31039,9.07531h0.00883c2.34136,0 4.61146,-0.51048 6.73586,-1.51844c3.82392,-1.79896 6.71121,-4.98747 8.13953,-8.96055c1.43284,-3.98212 1.22965,-8.27513 -0.57383,-12.09453l-32.69937,-69.34492c-0.28476,-0.452 -1.70023,-2.83877 -2.41891,-3.94617c-5.04432,-7.78344 -13.62851,-12.06805 -22.75891,-12.06805zM45.2,124.49422v20.98445l-27.72914,31.68414c-2.59448,2.96512 -3.88374,6.63261 -3.91086,10.28477c-0.03616,4.44768 1.79585,8.87777 5.40281,12.03273c3.00128,2.63064 6.711,3.91969 10.40836,3.91969c4.40248,0 8.79013,-1.82749 11.91797,-5.40281l31.64,-36.16c2.52216,-2.88376 3.91086,-6.58423 3.91086,-10.41719v-1.73031l-20.85203,-15.16672c-4.33468,-3.15496 -7.88613,-6.49411 -10.78797,-10.02875zM187.58,180.8c-6.24082,0 -11.3,5.05918 -11.3,11.3c0,6.24082 5.05918,11.3 11.3,11.3c6.24082,0 11.3,-5.05918 11.3,-11.3c0,-6.24082 -5.05918,-11.3 -11.3,-11.3z"></path></g></g></svg>