# Blender v3.1.2 OBJ File: ''
# www.blender.org
mtllib stone2.mtl
o Куб
v 0.644175 -0.788675 -0.793509
v 0.644176 -0.788675 0.783841
v -0.580249 -0.710409 -0.715243
v -0.525342 -0.643185 0.638351
v 0.644176 0.788675 -0.793509
v 0.564372 0.690970 0.686136
v -0.591591 0.724295 -0.729129
v -0.628873 0.769941 0.765106
v -0.000000 -0.963121 -0.967955
v 0.786660 -0.963121 -0.004834
v -0.000000 -0.845879 0.841045
v -0.555783 -0.680454 -0.004834
v -0.714542 0.000000 -0.879660
v -0.774082 0.000000 0.942888
v -0.668171 0.818053 -0.004834
v 0.000000 0.963121 -0.967955
v 0.000000 0.784621 0.779786
v 0.703968 0.861881 -0.004834
v 0.786660 -0.000000 -0.967956
v 0.786660 -0.000000 0.958287
v -0.000000 -1.104923 -0.004834
v -0.926160 0.000000 -0.004834
v 0.000000 1.085003 -0.004834
v 1.094084 -0.000000 -0.004834
v -0.000000 -0.000000 -1.344340
v 0.000000 0.000000 1.334672
vt 0.375000 0.000000
vt 0.500000 0.000000
vt 0.500000 0.125000
vt 0.375000 0.125000
vt 0.625000 0.000000
vt 0.625000 0.125000
vt 0.625000 0.250000
vt 0.500000 0.250000
vt 0.375000 0.250000
vt 0.500000 0.375000
vt 0.375000 0.375000
vt 0.625000 0.375000
vt 0.625000 0.500000
vt 0.500000 0.500000
vt 0.375000 0.500000
vt 0.500000 0.625000
vt 0.375000 0.625000
vt 0.625000 0.625000
vt 0.625000 0.750000
vt 0.500000 0.750000
vt 0.375000 0.750000
vt 0.500000 0.875000
vt 0.375000 0.875000
vt 0.625000 0.875000
vt 0.625000 1.000000
vt 0.500000 1.000000
vt 0.375000 1.000000
vt 0.125000 0.500000
vt 0.250000 0.500000
vt 0.250000 0.625000
vt 0.125000 0.625000
vt 0.250000 0.750000
vt 0.125000 0.750000
vt 0.750000 0.500000
vt 0.750000 0.625000
vt 0.875000 0.500000
vt 0.875000 0.625000
vt 0.875000 0.750000
vt 0.750000 0.750000
vn 0.2340 -0.9533 -0.1911
vn 0.1432 -0.9535 0.2653
vn -0.5185 -0.8366 0.1771
vn -0.5195 -0.8530 -0.0494
vn -0.9310 -0.3500 -0.1033
vn -0.8899 -0.4421 0.1124
vn -0.9598 0.2565 0.1141
vn -0.9495 0.2527 -0.1859
vn -0.3910 0.9106 -0.1341
vn -0.2094 0.9530 0.2189
vn 0.2518 0.9147 0.3160
vn 0.2947 0.9486 -0.1157
vn 0.9244 0.3202 -0.2072
vn 0.8761 0.3942 0.2775
vn 0.9274 -0.2645 0.2645
vn 0.9274 -0.2645 -0.2645
vn -0.5064 -0.3017 -0.8078
vn -0.4944 0.2917 -0.8188
vn 0.3743 0.3057 -0.8755
vn 0.3743 -0.3057 -0.8755
vn -0.2552 0.4316 0.8652
vn -0.4256 -0.4817 0.7660
vn 0.2818 -0.3840 0.8793
vn 0.3153 0.4997 0.8068
usemtl None
s off
f 1/1/1 10/2/1 21/3/1 9/4/1
f 10/2/2 2/5/2 11/6/2 21/3/2
f 21/3/3 11/6/3 4/7/3 12/8/3
f 9/4/4 21/3/4 12/8/4 3/9/4
f 3/9/5 12/8/5 22/10/5 13/11/5
f 12/8/6 4/7/6 14/12/6 22/10/6
f 22/10/7 14/12/7 8/13/7 15/14/7
f 13/11/8 22/10/8 15/14/8 7/15/8
f 7/15/9 15/14/9 23/16/9 16/17/9
f 15/14/10 8/13/10 17/18/10 23/16/10
f 23/16/11 17/18/11 6/19/11 18/20/11
f 16/17/12 23/16/12 18/20/12 5/21/12
f 5/21/13 18/20/13 24/22/13 19/23/13
f 18/20/14 6/19/14 20/24/14 24/22/14
f 24/22/15 20/24/15 2/25/15 10/26/15
f 19/23/16 24/22/16 10/26/16 1/27/16
f 3/28/17 13/29/17 25/30/17 9/31/17
f 13/29/18 7/15/18 16/17/18 25/30/18
f 25/30/19 16/17/19 5/21/19 19/32/19
f 9/31/20 25/30/20 19/32/20 1/33/20
f 8/13/21 14/34/21 26/35/21 17/18/21
f 14/34/22 4/36/22 11/37/22 26/35/22
f 26/35/23 11/37/23 2/38/23 20/39/23
f 17/18/24 26/35/24 20/39/24 6/19/24
